<svg xmlns="http://www.w3.org/2000/svg" width="1200" height="700" viewBox="0 0 1200 700" role="img" aria-label="ValueArc contact support team illustration">
  <defs>
    <linearGradient id="bg" x1="0" y1="0" x2="1" y2="1">
      <stop offset="0%" stop-color="#1c2f79"/>
      <stop offset="100%" stop-color="#0f1d4b"/>
    </linearGradient>
    <linearGradient id="panel" x1="0" y1="0" x2="1" y2="1">
      <stop offset="0%" stop-color="#31489e"/>
      <stop offset="100%" stop-color="#223778"/>
    </linearGradient>
  </defs>

  <rect width="1200" height="700" fill="url(#bg)"/>
  <rect x="88" y="88" width="1024" height="524" rx="30" fill="url(#panel)" stroke="#7ea3ff" stroke-opacity="0.35"/>

  <rect x="145" y="196" width="250" height="275" rx="18" fill="#1a2d68" stroke="#4b67be"/>
  <rect x="178" y="230" width="184" height="120" rx="8" fill="#0f1d4b"/>
  <rect x="196" y="372" width="148" height="14" rx="7" fill="#4f6fd8"/>
  <rect x="196" y="398" width="116" height="14" rx="7" fill="#8ea7ff"/>

  <circle cx="575" cy="368" r="82" fill="#f1f5ff"/>
  <circle cx="575" cy="320" r="33" fill="#cfdafe"/>
  <path d="M507 420c16-42 39-66 68-66 29 0 52 24 68 66" fill="#cfdafe"/>
  <path d="M630 318c24 0 44 20 44 44v24h-24v-20c0-11-9-20-20-20" fill="#90a6f2"/>
  <path d="M520 318c-24 0-44 20-44 44v24h24v-20c0-11 9-20 20-20" fill="#90a6f2"/>

  <circle cx="815" cy="368" r="82" fill="#f8fbff"/>
  <circle cx="815" cy="320" r="33" fill="#d6e0ff"/>
  <path d="M747 420c16-42 39-66 68-66 29 0 52 24 68 66" fill="#d6e0ff"/>
  <path d="M870 338c13 0 24 11 24 24v32h-20v-28c0-5-4-8-8-8" fill="#88a0f0"/>

  <text x="145" y="145" fill="#f8fbff" font-family="Segoe UI, Arial, sans-serif" font-size="50" font-weight="700">VALUEARC SUPPORT</text>
  <text x="145" y="560" fill="#d9e3ff" font-family="Segoe UI, Arial, sans-serif" font-size="30">Dedicated support for hiring and consulting inquiries</text>
</svg>
